<svg width="127" height="128" viewBox="0 0 127 128" fill="none" xmlns="http://www.w3.org/2000/svg">
    <circle cx="63.4654" cy="63.9999" r="27.7022" fill="#212121" fill-opacity="0.16" />
    <path fill-rule="evenodd" clip-rule="evenodd"
        d="M126.93 55.6894C122.856 24.2695 95.9949 7.62939e-05 63.4651 7.62939e-05C30.9353 7.62939e-05 4.07396 24.2695 -0.000191257 55.6894H23.3685C27.209 37.0629 43.7019 23.0589 63.4656 23.0589C83.2293 23.0589 99.7222 37.0629 103.563 55.6894H126.93ZM126.93 72.3107H103.563C99.7223 90.9372 83.2294 104.941 63.4656 104.941C43.7019 104.941 27.209 90.9372 23.3685 72.3107H-0.000200652C4.07392 103.731 30.9353 128 63.4651 128C95.995 128 122.856 103.731 126.93 72.3107Z"
        fill="#212121" fill-opacity="0.16" />
</svg>