<svg width="63" height="65" viewBox="0 0 63 65" fill="none" xmlns="http://www.w3.org/2000/svg">
    <ellipse cx="8.63485" cy="8.65882" rx="8.63485" ry="8.65882" transform="matrix(1 0 0 -1 22.712 41.1588)"
        fill="#D9D9D9" />
    <path fill-rule="evenodd" clip-rule="evenodd"
        d="M62.6938 38.5235C59.8839 53.317 46.9178 64.5 31.3469 64.5C15.7761 64.5 2.80995 53.317 0 38.5235H13.5572C16.0621 45.9653 23.0805 51.3235 31.3469 51.3235C39.6133 51.3235 46.6318 45.9653 49.1367 38.5235H62.6938ZM62.6575 26.2882H49.0722C46.513 18.9445 39.5435 13.6765 31.3469 13.6765C23.1504 13.6765 16.1808 18.9445 13.6216 26.2882H0.0363404C2.9201 11.5882 15.8422 0.5 31.3469 0.5C46.8516 0.5 59.7737 11.5882 62.6575 26.2882Z"
        fill="#FF5858" />
</svg>